<?xml version="1.0" encoding="UTF-8" standalone="no"?>
<!-- Created with Inkscape (http://www.inkscape.org/) -->

<svg
   xmlns:dc="http://purl.org/dc/elements/1.1/"
   xmlns:cc="http://creativecommons.org/ns#"
   xmlns:rdf="http://www.w3.org/1999/02/22-rdf-syntax-ns#"
   xmlns:svg="http://www.w3.org/2000/svg"
   xmlns="http://www.w3.org/2000/svg"
   xmlns:sodipodi="http://sodipodi.sourceforge.net/DTD/sodipodi-0.dtd"
   xmlns:inkscape="http://www.inkscape.org/namespaces/inkscape"
   width="256px"
   height="256px"
   viewBox="0 0 256 256"
   version="1.1"
   id="SVGRoot"
   inkscape:version="0.92.4 (ca053d0, 2019-01-16)"
   sodipodi:docname="icon.svg">
  <defs
     id="defs1922" />
  <sodipodi:namedview
     id="base"
     pagecolor="#ffffff"
     bordercolor="#666666"
     borderopacity="1.0"
     inkscape:pageopacity="0.0"
     inkscape:pageshadow="2"
     inkscape:zoom="2"
     inkscape:cx="136.81349"
     inkscape:cy="154.50566"
     inkscape:document-units="px"
     inkscape:current-layer="layer1"
     showgrid="false"
     inkscape:window-width="1920"
     inkscape:window-height="1016"
     inkscape:window-x="1366"
     inkscape:window-y="27"
     inkscape:window-maximized="1"
     inkscape:grid-bbox="true"
     inkscape:snap-object-midpoints="false" />
  <metadata
     id="metadata1925">
    <rdf:RDF>
      <cc:Work
         rdf:about="">
        <dc:format>image/svg+xml</dc:format>
        <dc:type
           rdf:resource="http://purl.org/dc/dcmitype/StillImage" />
        <dc:title></dc:title>
      </cc:Work>
    </rdf:RDF>
  </metadata>
  <g
     inkscape:label="Capa 1"
     inkscape:groupmode="layer"
     id="layer1">
    <ellipse
       style="fill:#c3d4db;fill-opacity:1;stroke:none;stroke-width:2.96934199;stroke-miterlimit:4;stroke-dasharray:none;stroke-dashoffset:0;stroke-opacity:1"
       id="path2480"
       cx="127.75"
       cy="128.25"
       rx="127.75573"
       ry="128.25574" />
    <g
       transform="matrix(0.7,0,0,0.7,28.2752,14.2752)"
       id="g8"
       style="fill:#664789;fill-opacity:1">
      <g
         id="g6"
         style="fill:#664789;fill-opacity:1">
        <path
           inkscape:connector-curvature="0"
           d="m 17.128,167.872 c 1.903,1.902 4.093,2.854 6.567,2.854 2.474,0 4.664,-0.952 6.567,-2.854 L 142.466,55.666 254.674,167.872 c 1.902,1.902 4.093,2.854 6.563,2.854 2.478,0 4.668,-0.952 6.57,-2.854 l 14.274,-14.277 c 1.902,-1.902 2.847,-4.093 2.847,-6.563 0,-2.475 -0.951,-4.665 -2.847,-6.567 L 149.028,7.419 c -1.901,-1.906 -4.088,-2.853 -6.562,-2.853 -2.474,0 -4.665,0.95 -6.567,2.853 L 2.856,140.464 C 0.95,142.367 0,144.554 0,147.034 c 0,2.468 0.953,4.658 2.856,6.561 z"
           id="path2"
           style="fill:#664789;fill-opacity:1" />
        <path
           inkscape:connector-curvature="0"
           d="m 149.028,117.055 c -1.901,-1.906 -4.088,-2.856 -6.562,-2.856 -2.474,0 -4.665,0.953 -6.567,2.856 L 2.856,250.1 C 0.95,252.003 0,254.192 0,256.67 c 0,2.472 0.953,4.661 2.856,6.564 l 14.272,14.276 c 1.903,1.903 4.093,2.848 6.567,2.848 2.474,0 4.664,-0.951 6.567,-2.848 L 142.466,165.301 254.674,277.51 c 1.902,1.903 4.093,2.852 6.563,2.852 2.478,0 4.668,-0.948 6.57,-2.852 l 14.274,-14.276 c 1.902,-1.903 2.847,-4.093 2.847,-6.564 0,-2.478 -0.951,-4.667 -2.847,-6.57 z"
           id="path4"
           style="fill:#664789;fill-opacity:1" />
      </g>
    </g>
  </g>
</svg>
